<svg width="89" height="52" viewBox="0 0 89 52" fill="none" xmlns="http://www.w3.org/2000/svg">
<g clip-path="url(#clip0_3861_9734)">
<path fill-rule="evenodd" clip-rule="evenodd" d="M71.5344 39.1003H62.2879V1.96605L71.5344 0.0200617V39.1003ZM45.2252 29.912C47.7836 29.912 49.8384 27.8657 49.8384 25.338V25.3179C49.8384 22.7901 47.7836 20.7238 45.2252 20.7238C42.6668 20.7238 40.612 22.7701 40.612 25.3179C40.612 27.8657 42.6668 29.912 45.2252 29.912ZM45.2252 11.1343C53.1019 11.1343 59.4676 17.4738 59.4676 25.338C59.4676 33.162 53.0817 39.5216 45.2051 39.5216C37.3284 39.5216 30.9627 33.142 30.9627 25.3179C30.9627 17.4938 37.3486 11.1343 45.2252 11.1343ZM45.2252 42.8117C42.6668 42.8117 40.612 44.8781 40.612 47.4059C40.612 49.9336 42.6668 52 45.2252 52C47.7836 52 49.8384 49.9537 49.8384 47.4059C49.8384 44.858 47.7836 42.8117 45.2252 42.8117ZM16.1763 29.912H16.3375C17.9289 29.8719 19.1779 28.5478 19.1376 26.963C19.0973 25.3781 17.7678 24.1343 16.1763 24.1744H9.24649V29.912H16.1763ZM9.24649 9.20833V14.946H14.3834C15.9749 14.946 17.2641 13.662 17.2641 12.0772C17.2641 10.4923 15.9749 9.20833 14.3834 9.20833H9.24649ZM24.6775 18.4367C26.974 20.7037 28.2632 23.7932 28.2632 26.983C28.2834 33.6636 22.8443 39.0802 16.1562 39.0802H0V0H14.3633C16.6195 0 18.8153 0.621914 20.7291 1.80556C26.4301 5.31636 28.2028 12.7593 24.6775 18.4367ZM88.9799 20.8441V11.6358H84.3465V4.6142L75.1202 6.56018V30.3534C75.1202 35.9707 78.6254 39.2006 83.7825 39.4614C83.8228 39.4614 83.9034 39.4815 83.9436 39.4815H84.0242C84.1451 39.4815 84.2458 39.5015 84.3667 39.5015H84.4875C86.0588 39.5015 87.61 39.1003 89 38.358V31.5772C88.3352 31.7577 87.6301 31.858 86.9452 31.838C85.0919 31.838 84.3868 30.233 84.3868 28.0463V20.8241L88.9799 20.8441Z" fill="#2A9C64"></path>
</g>
<defs>
<clipPath id="clip0_3861_9734">
<rect width="89" height="52" fill="white"></rect>
</clipPath>
</defs>
</svg>